<svg xmlns="http://www.w3.org/2000/svg" style="display: none;"><symbol id="chainsaw" viewBox="0 0 64 64"><title>chainsaw</title><g><path d="m57.93 16c.05-.31.07-.62.07-.93 0-1.95-.79-3.72-2.07-5s-3.05-2.07-5-2.07c-.31 0-.62.02-.93.07-1.53.19-2.96.89-4.07 2l-.93.93-3 3-2 2v-3c0-6.08 4.92-11 11-11 3.04 0 5.79 1.23 7.78 3.22s3.22 4.74 3.22 7.78v38c0-6.08-4.92-11-11-11s-11 4.92-11 11v-15l3-3 3-3 3-3 3-3 3-3 .93-.93c1.11-1.11 1.81-2.54 2-4.07z" fill="#dfb28b"/><path d="m51 40c6.08 0 11 4.92 11 11s-4.92 11-11 11-11-4.92-11-11 4.92-11 11-11z" fill="#b27946"/><path d="m51 44c3.87 0 7 3.13 7 7s-3.13 7-7 7-7-3.13-7-7 3.13-7 7-7z" fill="#d3a06c"/><circle cx="51" cy="51" fill="#dfb28b" r="3"/><path d="m10 38.22v11.78l-1.15-1.15-1.2-1.2c-.59-.59-1.04-1.3-1.31-2.08-.23-.6-.34-1.25-.34-1.91 0-2.22 1.31-4.24 3.35-5.15z" fill="#5cd6b3"/><path d="m31.17 39.17-4.34-4.34-2.83-2.83-2 .89-4 1.77v.01l-4 1.77v17.56l1.17 1.17 2.83 2.83 16-16z" fill="#5cd6b3"/><circle cx="23" cy="39" fill="#ff826e" r="2"/><path d="m27 49-5 5-5-5c0-1.38.56-2.63 1.46-3.54.91-.9 2.16-1.46 3.54-1.46z" fill="#ff826e"/><path d="m7.65 47.65 1.2 1.2-1.94 2.42c-.59.73-.91 1.65-.91 2.59 0 2.28 1.86 4.14 4.14 4.14h2.2l2.83-2.83 2.83 2.83-4 4h-3.86c-4.49 0-8.14-3.65-8.14-8.14 0-1.85.63-3.65 1.78-5.09l2.55-3.2h.01c.27.78.72 1.49 1.31 2.08z" fill="#969faa"/><path d="m22 32.89-4 1.77v-1.66c0-1.1-.9-2-2-2s-2 .9-2 2v3.44 17.56l-4-4v-11.78-5.22c0-3.31 2.69-6 6-6 3.27 0 5.94 2.63 6 5.89z" fill="#ccd1d9"/><path d="m55.93 10.07c-1.28-1.28-3.05-2.07-5-2.07-.31 0-.62.02-.93.07-1.53.19-2.96.89-4.07 2l-21.93 21.93 2.83 2.83 21.93-21.93c.35-.35.77-.6 1.24-.75.3-.1.61-.15.93-.15.85 0 1.61.34 2.17.9s.9 1.32.9 2.17c0 .32-.05.63-.15.93-.15.47-.4.89-.75 1.24l-21.93 21.93 2.83 2.83 21.93-21.93c1.11-1.11 1.81-2.54 2-4.07.05-.31.07-.62.07-.93 0-1.95-.79-3.72-2.07-5z" fill="#fcd770"/><path d="m52.17 18.17-3 3-3 3-3 3-3 3-3 3-3 3-3 3-4.34-4.34 3-3 3-3 3-3 3-3 3-3 3-3 3-3 .93-.93c.35-.35.77-.6 1.24-.75.3-.1.61-.15.93-.15.85 0 1.61.34 2.17.9s.9 1.32.9 2.17c0 .32-.05.63-.15.93-.15.47-.4.89-.75 1.24z" fill="#ffeaa7"/></g><g><path d="m20 39c0 1.654 1.346 3 3 3s3-1.346 3-3-1.346-3-3-3-3 1.346-3 3zm4 0c0 .551-.448 1-1 1s-1-.449-1-1 .448-1 1-1 1 .449 1 1z"/><path d="m51 47c-2.206 0-4 1.794-4 4s1.794 4 4 4 4-1.794 4-4-1.794-4-4-4zm0 6c-1.103 0-2-.897-2-2s.897-2 2-2 2 .897 2 2-.897 2-2 2z"/><path d="m51 43c-4.411 0-8 3.589-8 8s3.589 8 8 8 8-3.589 8-8-3.589-8-8-8zm0 14c-3.309 0-6-2.691-6-6s2.691-6 6-6 6 2.691 6 6-2.691 6-6 6z"/><path d="m51 1c-6.617 0-12 5.383-12 12v2.586l-15.576 15.575-.606.27c-.721-3.099-3.522-5.431-6.818-5.431-3.859 0-7 3.14-7 7v4.573l-.058.026c-2.394 1.064-3.942 3.445-3.942 6.066 0 .581.081 1.148.225 1.696l-2.222 2.784c-1.291 1.614-2.003 3.643-2.003 5.711 0 5.042 4.102 9.144 9.144 9.144h4.271l3.585-3.586.707-.707 16-16 .707-.707 3.586-3.586v12.586c0 6.617 5.383 12 12 12s12-5.383 12-12v-38c0-6.617-5.383-12-12-12zm-22.757 33.828 21.221-21.221c.386-.386.92-.607 1.465-.607 1.142 0 2.071.929 2.071 2.071 0 .545-.221 1.079-.606 1.464l-21.222 21.222zm10.585-13.414-1.414-1.414 1.586-1.586 1.414 1.414zm-1.414 1.414-1.586 1.586-1.414-1.414 1.586-1.586zm-3 3-1.586 1.586-1.414-1.414 1.586-1.586zm-3 3-1.586 1.586-1.414-1.414 1.586-1.586zm-3 3-1.586 1.586-1.414-1.414 1.586-1.586zm8.758 2.758 1.414 1.414-1.586 1.586-1.414-1.414zm2.828 0-1.414-1.414 1.586-1.586 1.414 1.414zm3-3-1.414-1.414 1.586-1.586 1.414 1.414zm3-3-1.414-1.414 1.586-1.586 1.414 1.414zm3-3-1.414-1.414 1.586-1.586 1.414 1.414zm3-3-1.414-1.414 1.586-1.586 1.414 1.414zm3.222-3.222-.222.222-1.414-1.414.222-.222c.279-.279.496-.606.682-.95h2.193c-.295.88-.786 1.689-1.461 2.364zm-.229-4.364c-.013-.732-.227-1.411-.578-2l1.451-1.45c.699.976 1.117 2.165 1.132 3.45zm-1.993-3.414c-.589-.352-1.268-.566-2-.579v-2.003c1.286.015 2.474.433 3.451 1.132zm-4-.076c-.344.186-.671.404-.95.683l-.221.221-1.415-1.414.222-.222c.675-.675 1.484-1.166 2.364-1.46zm-4 .904 1.414 1.414-1.586 1.586-1.414-1.414zm-3 3 1.414 1.414-1.586 1.586-1.414-1.414zm-26 12.586c2.49 0 4.564 1.869 4.923 4.273l-1.923.855v-.128c0-1.654-1.346-3-3-3s-3 1.346-3 3v18.586l-2-2v-16.586c0-2.757 2.243-5 5-5zm-7.071 22.343 4.829 4.829-1.829 1.828h-1.785c-1.734 0-3.144-1.41-3.144-3.144 0-.711.244-1.408.688-1.963zm8.071-16.326-2 .889v-1.906c0-.551.448-1 1-1s1 .449 1 1zm-8 5.844v7.724l-.642-.642c-.876-.875-1.358-2.039-1.358-3.278 0-1.536.767-2.947 2-3.804zm4.586 21.139h-3.442c-3.939 0-7.144-3.205-7.144-7.144 0-1.616.556-3.201 1.565-4.463l1.588-1.991c.232.339.494.66.791.956l.561.561-1.38 1.724c-.725.909-1.125 2.05-1.125 3.213 0 2.836 2.308 5.144 5.144 5.144h2.613l2.415-2.414 1.414 1.414zm8.414-8.414-3.981-3.981c.186-1.891 1.694-3.399 3.586-3.585l3.98 3.98zm5-5-4.586-4.586h-.414c-3.309 0-6 2.691-6 6v.414l4.586 4.586-2.586 2.586-3-3v-16.492l8.778-3.901 8.808 8.807zm7-7-1.414-1.414 1.586-1.586 1.414 1.414zm17 20.414c-5.514 0-10-4.486-10-10s4.486-10 10-10 10 4.486 10 10-4.486 10-10 10zm0-22c-4.172 0-7.849 2.142-10 5.381v-7.967l15.636-15.636c1.524-1.524 2.364-3.551 2.364-5.707 0-4.45-3.621-8.071-8.071-8.071-2.155 0-4.183.84-5.707 2.364l-4.222 4.222v-.586c0-5.514 4.486-10 10-10s10 4.486 10 10v31.381c-2.151-3.239-5.828-5.381-10-5.381z"/><path d="m57 30h2v8h-2z"/><path d="m53 27h2v6h-2z"/><path d="m46 33h2v4h-2z"/></g></symbol><symbol id="lumberjack" viewBox="0 0 128 128"><title>lumberjack</title><path d="m66.016 80.695h-4.032a23.689 23.689 0 0 1 -23.689-23.689v-9.213h51.41v9.213a23.689 23.689 0 0 1 -23.689 23.689z" fill="#ffdaa8"/><path d="m64 80.695h2.016a23.689 23.689 0 0 0 23.689-23.689v-9.213h-25.705z" fill="#ffc373"/><path d="m113.94 108.68v6.29h-99.88v-6.29c0-11.96 9.7-22.64 21.66-22.64l13.67-1.25a7.051 7.051 0 0 0 5.63-4.95l1.27-4.29h15.42l1.27 4.29a7.051 7.051 0 0 0 5.63 4.95l13.67 1.25c11.96 0 21.66 10.68 21.66 22.64z" fill="#fcb740"/><path d="m92.28 86.04-13.67-1.25a7.051 7.051 0 0 1 -5.63-4.95l-1.27-4.29h-7.71v39.42h49.94v-6.29c0-11.96-9.7-22.64-21.66-22.64z" fill="#fc8800"/><path d="m64 95.261c6.165 0 11.238-5.03 11.93-11.506a7.044 7.044 0 0 1 -2.946-3.92l-1.269-4.281h-15.43l-1.269 4.281a7.044 7.044 0 0 1 -2.946 3.92c.692 6.476 5.765 11.506 11.93 11.506z" fill="#ffc373"/><path d="m74.741 71.413a5.472 5.472 0 0 0 -2.4.554 10.308 10.308 0 0 0 -16.693 0 5.472 5.472 0 0 0 -2.4-.554c-11.491-4.587-14.964-23.62-14.964-23.62v9.213a23.636 23.636 0 0 0 9.544 18.985 5.483 5.483 0 0 0 6.733 6.266 10.324 10.324 0 0 0 18.857 0 5.477 5.477 0 0 0 6.733-6.266 23.636 23.636 0 0 0 9.544-18.985v-9.213s-3.462 19.033-14.954 23.62z" fill="#d96200"/><path d="m33.65 104.69v10.28h-3.5v-10.28a1.75 1.75 0 0 1 3.5 0z" fill="#fc8800"/><path d="m97.84 104.69v10.28h-3.5v-10.28a1.75 1.75 0 0 1 3.5 0z" fill="#fcb740"/><path d="m32.7 53.39a5.6 5.6 0 0 0 5.6 5.6v-11.2a5.6 5.6 0 0 0 -5.6 5.6z" fill="#ffdaa8"/><path d="m95.3 53.39a5.6 5.6 0 0 0 -5.6-5.6v11.2a5.6 5.6 0 0 0 5.6-5.6z" fill="#ffc373"/><path d="m55.306 51.607a2.566 2.566 0 1 0 2.566 2.566 2.569 2.569 0 0 0 -2.566-2.566z" fill="#ff9f60"/><path d="m72.694 51.607a2.566 2.566 0 1 0 2.565 2.566 2.569 2.569 0 0 0 -2.565-2.566z" fill="#ff9f60"/><path d="m65 60.635-.637-.445 1.326-5.107a1.75 1.75 0 1 0 -3.387-.88l-1.632 6.283a1.749 1.749 0 0 0 .69 1.874l1.64 1.14a1.75 1.75 0 0 0 2-2.865z" fill="#ff9f60"/><rect fill="#ff415a" height="14.69" rx="2.57" width="54.2" x="36.9" y="33.1"/><path d="m58.608 13h10.784a17.858 17.858 0 0 1 17.858 17.858v2.242a0 0 0 0 1 0 0h-46.5a0 0 0 0 1 0 0v-2.24a17.858 17.858 0 0 1 17.858-17.86z" fill="#ff415a"/><path d="m45.187 85.174-7.25.661v29.102h7.25z" fill="#d96200"/><path d="m90.062 85.835-7.25-.661v29.763h7.25z" fill="#af4b00"/><path d="m33.65 109.828h16.6v5.109h-16.6z" fill="#ffffed"/><path d="m77.75 109.828h16.59v5.109h-16.59z" fill="#fff0c3"/><path d="m69.392 13h-5.392v20.1h23.25v-2.24a17.858 17.858 0 0 0 -17.858-17.86z" fill="#ce0050"/><path d="m73.429 82.256a5.477 5.477 0 0 0 6.733-6.266 23.636 23.636 0 0 0 9.544-18.985v-9.212s-3.473 19.033-14.964 23.62a5.472 5.472 0 0 0 -2.4.554 10.309 10.309 0 0 0 -8.342-4.259v20.667a10.329 10.329 0 0 0 9.429-6.119z" fill="#af4b00"/><path d="m88.53 33.1h-24.53v14.69h24.53a2.569 2.569 0 0 0 2.57-2.57v-9.55a2.569 2.569 0 0 0 -2.57-2.57z" fill="#ce0050"/><path d="m44.25 33.1h3.5v14.69h-3.5z" fill="#9f0352"/><path d="m53.25 33.1h3.5v14.69h-3.5z" fill="#9f0352"/><path d="m62.25 33.1h3.5v14.69h-3.5z" fill="#9f0352"/><path d="m71.25 33.1h3.5v14.69h-3.5z" fill="#9f0352"/><path d="m80.25 33.1h3.5v14.69h-3.5z" fill="#9f0352"/><path d="m64 78.29a4.672 4.672 0 0 1 -4.667-4.667 1.75 1.75 0 0 1 3.5 0 1.167 1.167 0 0 0 2.333 0 1.75 1.75 0 1 1 3.5 0 4.672 4.672 0 0 1 -4.666 4.667z" fill="#ff9f60"/><g fill="#28092d"><path d="m100.043 85.718c-.2-.076-.4-.149-.6-.22a1.75 1.75 0 1 0 -1.152 3.3c.173.06.345.123.516.188a1.75 1.75 0 1 0 1.24-3.272z"/><path d="m105.229 88.5a1.75 1.75 0 1 0 -2.027 2.853 21.61 21.61 0 0 1 8.989 17.333v6.288a1.75 1.75 0 0 0 3.5 0v-6.288a25.162 25.162 0 0 0 -10.462-20.186z"/><path d="m96.095 102.937a1.75 1.75 0 0 0 -1.75 1.75v3.391h-2.533v-20.326l.306.028q.082.007.161.007a1.75 1.75 0 0 0 .157-3.493l-13.6-1.241c-.056-.01-.109-.032-.165-.044a7.259 7.259 0 0 0 3.329-6.092c0-.044 0-.088 0-.133a25.169 25.169 0 0 0 9.2-16.2 7.347 7.347 0 0 0 1.4-13.948 4.266 4.266 0 0 0 .258-1.415v-9.553a4.326 4.326 0 0 0 -4.32-4.321h-46.038v-.49a15.946 15.946 0 0 1 1.617-7.043 1.75 1.75 0 0 0 -3.146-1.533 19.423 19.423 0 0 0 -1.971 8.577v.537a4.312 4.312 0 0 0 -3.855 4.274v9.554a4.266 4.266 0 0 0 .258 1.415 7.347 7.347 0 0 0 1.409 13.95 25.093 25.093 0 0 0 5.178 12.13 1.75 1.75 0 0 0 2.749-2.167 21.636 21.636 0 0 1 -4.579-11.271c2.467 5.455 6.413 11.348 12.45 13.758a1.758 1.758 0 0 0 .649.125 3.711 3.711 0 0 1 1.631.379 1.75 1.75 0 0 0 2.178-.542 8.614 8.614 0 0 1 6.932-3.542 8.5 8.5 0 0 1 6.933 3.542 1.75 1.75 0 0 0 2.828-2.062 12.054 12.054 0 0 0 -18.673-1.038 7.169 7.169 0 0 0 -1.46-.227c-8.128-3.473-11.909-15.317-13.138-20.131h47.02c-1.037 4.065-3.9 13.137-9.671 17.968a1.75 1.75 0 1 0 2.246 2.69 30.7 30.7 0 0 0 7.756-10.93 21.736 21.736 0 0 1 -8.727 15.318 1.75 1.75 0 0 0 -.678 1.7 3.734 3.734 0 0 1 -4.592 4.27 1.75 1.75 0 0 0 -2.013.984 8.574 8.574 0 0 1 -15.664 0 1.749 1.749 0 0 0 -2.013-.984 3.736 3.736 0 0 1 -4.651-3.64 3.81 3.81 0 0 1 .059-.633 1.75 1.75 0 1 0 -3.45-.586 7.2 7.2 0 0 0 3.214 7.313c-.055.011-.107.034-.163.043l-13.522 1.232c-12.656.048-23.333 11.2-23.333 24.394v6.288a1.75 1.75 0 0 0 3.5 0v-6.288c0-11.326 9.12-20.894 19.914-20.894.053 0 .106 0 .159-.007l.306-.028v20.326h-2.532v-3.391a1.75 1.75 0 0 0 -3.5 0v10.282a1.75 1.75 0 0 0 3.5 0v-3.391h14.845v3.36a1.75 1.75 0 0 0 3.5 0v-5.11a1.75 1.75 0 0 0 -1.75-1.75h-10.563v-20.645l3.75-.342v16.409a1.75 1.75 0 1 0 3.5 0v-16.729l2.611-.238c.041 0 .082-.009.123-.016a8.813 8.813 0 0 0 4.212-1.923 12.015 12.015 0 0 0 20.111.18c-1.054 5.057-5.167 8.737-9.994 8.737a9.908 9.908 0 0 1 -8.087-4.335 1.75 1.75 0 0 0 -2.851 2.03 13.365 13.365 0 0 0 10.938 5.805c6.249 0 11.593-4.487 13.234-10.754a8.745 8.745 0 0 0 1.1.26c.04.007.081.012.122.016l9.86.9v20.645h-3.75v-16.578a1.75 1.75 0 1 0 -3.5 0v16.578h-3.316a1.75 1.75 0 0 0 -1.75 1.75v5.11a1.75 1.75 0 0 0 3.5 0v-3.36h14.845v3.391a1.75 1.75 0 0 0 3.5 0v-10.282a1.75 1.75 0 0 0 -1.75-1.75zm-4.64-46.137v-6.817a3.816 3.816 0 0 1 0 6.814zm-2.1-21.129v9.554a.821.821 0 0 1 -.82.82h-4.785v-11.197h4.784a.822.822 0 0 1 .82.82zm-34.355.912a1.75 1.75 0 0 0 -1.75 1.75v7.709h-5.5v-11.194h14.5v11.194h-5.5v-7.709a1.75 1.75 0 0 0 -1.75-1.75zm10.75-1.736h5.5v6.319a1.75 1.75 0 0 0 3.5 0v-6.318h5.5v11.194h-14.5zm-27.1.821a.822.822 0 0 1 .821-.821h4.779v11.195h-4.784a.822.822 0 0 1 -.821-.82zm-4.2 17.722a3.837 3.837 0 0 1 2.1-3.407v6.817a3.838 3.838 0 0 1 -2.103-3.41z"/><path d="m52.74 54.173a2.566 2.566 0 1 0 2.566-2.566 2.569 2.569 0 0 0 -2.566 2.566z"/><path d="m72.694 51.607a2.566 2.566 0 1 0 2.565 2.566 2.569 2.569 0 0 0 -2.565-2.566z"/><path d="m64.44 52.949a1.753 1.753 0 0 0 -2.134 1.251l-1.632 6.283a1.749 1.749 0 0 0 .69 1.874l1.636 1.143a1.75 1.75 0 0 0 2-2.865l-.637-.445 1.326-5.107a1.75 1.75 0 0 0 -1.249-2.134z"/><path d="m46 19.961a1.743 1.743 0 0 0 1.234-.509q.247-.245.5-.48a1.75 1.75 0 1 0 -2.362-2.583q-.311.284-.609.582a1.75 1.75 0 0 0 1.237 2.99z"/><path d="m51.522 16.388a15.953 15.953 0 0 1 7.086-1.638h10.785a16.021 16.021 0 0 1 15.7 12.5 1.75 1.75 0 1 0 3.412-.779 19.5 19.5 0 0 0 -19.112-15.221h-10.785a19.415 19.415 0 0 0 -8.628 2 1.75 1.75 0 1 0 1.542 3.142z"/><path d="m68.667 73.624a1.75 1.75 0 1 0 -3.5 0 1.167 1.167 0 0 1 -2.333 0 1.75 1.75 0 0 0 -3.5 0 4.667 4.667 0 0 0 9.333 0z"/></g></symbol><symbol id="helmet" viewBox="0 0 480 480"><title>helmet</title><g> <path style="fill:#FFDE17;" d="M304,26.08V24c0-8.837-7.163-16-16-16h-48h-48c-8.837,0-16,7.163-16,16v2.08 C90.143,53.823,31.975,133.772,32,224h416C448.025,133.772,389.857,53.823,304,26.08z"/> <path style="fill:#FFDE17;" d="M456,224H24c-8.837,0-16,7.163-16,16v16c0,8.837,7.163,16,16,16h432c8.837,0,16-7.163,16-16v-16 C472,231.163,464.837,224,456,224z"/> </g><path style="fill:#E6E7E8;" d="M432,360c0-17.673-14.327-32-32-32H80c-17.673,0-32,14.327-32,32v64c0,26.51,21.49,48,48,48l0,0h48 c33.828,0.024,65.167-17.771,82.48-46.832c4.558-7.467,14.306-9.825,21.773-5.267c2.149,1.312,3.955,3.118,5.267,5.267 C270.833,454.229,302.172,472.024,336,472h48c26.51,0,48-21.49,48-48l0,0L432,360z M96,360c-8.837,0-16,7.163-16,16 C80,367.163,87.163,360,96,360z"/><g> <path style="fill:#A7A9AC;" d="M432,384h40v40h-40V384z"/> <path style="fill:#A7A9AC;" d="M432,360h40v24h-40V360z"/> <path style="fill:#A7A9AC;" d="M8,392v40h40v-8v-32H8z"/> <path style="fill:#A7A9AC;" d="M8,368h40v24H8V368z"/> </g><g> <path style="fill:#231F20;" d="M456,216h-0.32c-3.034-88.692-60.255-166.404-144.048-195.632C309.844,8.686,299.818,0.045,288,0 h-96c-11.818,0.045-21.844,8.686-23.632,20.368C84.575,49.596,27.354,127.308,24.32,216H24c-13.255,0-24,10.745-24,24v16 c0,13.255,10.745,24,24,24h432c13.255,0,24-10.745,24-24v-16C480,226.745,469.255,216,456,216z M168,37.528V176 c0,4.418,3.582,8,8,8s8-3.582,8-8V24c0-4.418,3.582-8,8-8h40v176c0,4.418,3.582,8,8,8s8-3.582,8-8V16h40c4.418,0,8,3.582,8,8v152 c0,4.418,3.582,8,8,8s8-3.582,8-8V37.528C386.472,66.066,436.719,136.302,439.68,216H40.32 C43.281,136.302,93.528,66.066,168,37.528z M464,256c0,4.418-3.582,8-8,8H24c-4.418,0-8-3.582-8-8v-16c0-4.418,3.582-8,8-8h432 c4.418,0,8,3.582,8,8V256z"/> <path style="fill:#231F20;" d="M200,352H96c-13.255,0-24,10.745-24,24v32c0,4.418,3.582,8,8,8s8-3.582,8-8v-32c0-4.418,3.582-8,8-8 h104c4.418,0,8-3.582,8-8S204.418,352,200,352z"/> <path style="fill:#231F20;" d="M472,352h-32.8c-3.827-18.611-20.199-31.976-39.2-32H80c-22.08,0.026-39.974,17.92-40,40H8 c-4.418,0-8,3.582-8,8v64c0,4.418,3.582,8,8,8h34.4c7.089,23.696,28.867,39.947,53.6,40h48 c36.608-0.104,70.495-19.345,89.344-50.728c2.296-3.676,7.138-4.794,10.814-2.498c1.012,0.632,1.866,1.486,2.498,2.498 C265.505,460.655,299.392,479.896,336,480h48c27.813-0.033,51.387-20.473,55.36-48H472c4.418,0,8-3.582,8-8v-64 C480,355.582,476.418,352,472,352z M464,376h-24v-8h24V376z M40,376v8H16v-8H40z M16,424v-24h24v24H16z M384,464h-48 c-30.983-0.091-59.663-16.376-75.616-42.936c-6.813-11.267-21.47-14.877-32.736-8.064c-3.301,1.996-6.068,4.763-8.064,8.064 C203.637,447.614,174.971,463.898,144,464H96c-22.08-0.026-39.974-17.92-40-40v-64c0-13.255,10.745-24,24-24h320 c13.255,0,24,10.745,24,24v64C423.974,446.08,406.08,463.974,384,464z M440,416v-24h24v24H440z"/> <path style="fill:#231F20;" d="M248,352h-16c-4.418,0-8,3.582-8,8s3.582,8,8,8h16c4.418,0,8-3.582,8-8S252.418,352,248,352z"/> </g></symbol><symbol id="clock" viewBox="0 0 512.028 512.028"><title>clock</title><g><g><path d="m145.751 484.635v-228.873h19.776c24.01 0 39.016-25.993 27.01-46.785l-63.386-109.776c-12.005-20.79-42.014-20.791-54.019-.001l-63.393 109.775c-12.007 20.793 2.998 46.787 27.009 46.787h19.786v228.873c0 10.84 8.787 19.627 19.627 19.627h47.963c10.84 0 19.627-8.788 19.627-19.627z" fill="#9dc6fb"/><path d="m96.218 504.264h-18.059c-10.836 0-19.62-8.784-19.62-19.62v-228.886h-19.793c-24.011 0-39.018-25.988-27.002-46.785l63.383-109.772c6.003-10.393 16.507-15.584 27.012-15.584-7.037 0-14.074 5.191-18.089 15.584l-42.465 109.773c-8.051 20.797 2.008 46.785 18.089 46.785h8.131c8.428 0 15.261 6.833 15.261 15.261v213.614c0 10.839 5.892 19.63 13.152 19.63z" fill="#698ed5"/></g><g><path d="m393.141 307.005v-178.593h13.859c16.827 0 27.344-18.216 18.929-32.788l-44.422-76.934c-8.413-14.57-29.444-14.571-37.858-.001l-44.427 76.933c-8.415 14.572 2.101 32.789 18.929 32.789h13.866v178.593c0 7.597 6.158 13.755 13.755 13.755h33.613c7.597.001 13.756-6.157 13.756-13.754z" fill="#dd636e"/><path d="m358.426 320.762h-12.656c-7.594 0-13.75-6.156-13.75-13.751v-178.602h-13.871c-16.827 0-27.345-18.213-18.924-32.788l44.421-76.932c4.207-7.284 11.569-10.922 18.931-10.922-4.932 0-9.863 3.638-12.677 10.922l-29.761 76.932c-5.642 14.575 1.407 32.788 12.677 32.788h5.699c5.907 0 10.695 4.788 10.695 10.695v167.899c0 7.598 4.128 13.759 9.216 13.759z" fill="#cb5769"/></g><g><circle cx="256.011" cy="320.762" fill="#f6e266" r="168.215"/><path d="m266.81 488.639c-3.57.218-7.174.338-10.799.338-92.908 0-168.215-75.318-168.215-168.215s75.307-168.215 168.215-168.215c3.625 0 7.228.12 10.799.338-87.842 5.612-157.351 78.626-157.351 167.877s69.51 162.264 157.351 167.877z" fill="#ffd064"/><circle cx="256.011" cy="320.762" fill="#d3effb" r="128.565"/><path d="m278.475 447.464c-7.119 1.234-14.446 1.867-21.914 1.867-71.005 0-128.569-57.564-128.569-128.569s57.564-128.569 128.569-128.569c7.468 0 14.795.633 21.914 1.867-60.556 10.395-106.644 63.165-106.644 126.702s46.088 116.307 106.644 126.702z" fill="#9dc6fb"/><path d="m256.011 337.14h-59.731c-9.045 0-16.378-7.333-16.378-16.378s7.333-16.378 16.378-16.378h59.731c9.045 0 16.378 7.333 16.378 16.378s-7.333 16.378-16.378 16.378z" fill="#365e7d"/><path d="m256.011 337.14c-9.045 0-16.378-7.333-16.378-16.378v-41.82c0-9.045 7.333-16.378 16.378-16.378s16.378 7.333 16.378 16.378v41.82c0 9.045-7.333 16.378-16.378 16.378z" fill="#2b4d66"/></g><g><path d="m453.501 484.635v-72.312h19.776c24.01 0 39.016-25.993 27.01-46.785l-63.387-109.776c-12.005-20.79-42.013-20.791-54.019-.001l-63.392 109.775c-12.007 20.793 2.998 46.786 27.009 46.786h19.786v72.312c0 10.84 8.787 19.627 19.627 19.627h47.963c10.839.001 19.627-8.787 19.627-19.626z" fill="#95d6a4"/><path d="m403.967 504.264h-18.059c-10.836 0-19.62-8.784-19.62-19.62v-72.325h-19.793c-24.011 0-39.018-25.988-27.002-46.785l63.383-109.773c6.003-10.393 16.508-15.584 27.012-15.584-7.037 0-14.074 5.191-18.089 15.584l-42.465 109.773c-8.051 20.797 2.008 46.785 18.089 46.785h8.131c8.428 0 15.261 6.833 15.261 15.261v57.053c.001 10.84 5.892 19.631 13.152 19.631z" fill="#78c2a4"/></g></g><g><path d="m256.011 255.063c-13.167 0-23.878 10.711-23.878 23.878v17.942h-35.858c-13.167 0-23.878 10.712-23.878 23.878s10.711 23.878 23.878 23.878h59.737c13.166 0 23.877-10.712 23.877-23.878v-41.821c0-13.165-10.711-23.877-23.878-23.877zm-68.614 65.699c0-4.896 3.982-8.878 8.878-8.878h35.858v8.878c0 3.137.614 6.131 1.718 8.878h-37.576c-4.896 0-8.878-3.982-8.878-8.878zm77.492 0c0 4.896-3.982 8.878-8.878 8.878s-8.878-3.982-8.878-8.878v-41.821c0-4.896 3.983-8.878 8.878-8.878s8.878 3.982 8.878 8.878z"/><path d="m506.782 361.786-63.386-109.775c-6.994-12.112-19.519-19.343-33.504-19.343-.001 0 0 0-.001 0-.601 0-1.195.031-1.79.058-2.343-4.04-4.831-7.964-7.458-11.769v-85.045h6.36c10.61 0 20.113-5.488 25.42-14.68 5.308-9.193 5.31-20.168.004-29.361l-18.63-32.26c-2.071-3.587-6.66-4.815-10.245-2.744-3.587 2.071-4.816 6.658-2.744 10.245l18.629 32.259c2.594 4.495 2.593 9.863-.004 14.36-2.596 4.496-7.243 7.18-12.43 7.18h-13.86c-4.142 0-7.5 3.358-7.5 7.5v73.722c-13.328-14.562-28.942-26.693-46.13-35.975v-37.747c0-4.142-3.358-7.5-7.5-7.5h-13.86c-5.194 0-9.844-2.686-12.44-7.184-2.594-4.495-2.593-9.861.004-14.355l44.431-76.932c2.594-4.494 7.24-7.177 12.429-7.177s9.835 2.683 12.432 7.18l10.8 18.69c2.072 3.586 6.66 4.813 10.246 2.741s4.814-6.66 2.741-10.246l-10.798-18.687c-5.305-9.191-14.809-14.678-25.421-14.678s-20.115 5.487-25.419 14.677l-44.429 76.93c-5.31 9.189-5.313 20.163-.008 29.356 5.307 9.196 14.814 14.686 25.432 14.686h6.36v23.033c-21.314-9.021-44.538-13.893-68.5-13.893-28.975 0-56.332 7.054-80.451 19.528l-39.914-69.13c-6.997-12.112-19.521-19.341-33.508-19.341-.002 0-.006 0-.007 0-13.984.003-26.505 7.234-33.494 19.342l-63.392 109.771c-6.996 12.116-6.997 26.581-.003 38.695s19.52 19.346 33.508 19.346h12.28v221.37c0 14.959 12.17 27.13 27.13 27.13h47.96c14.96 0 27.13-12.171 27.13-27.13v-21.318c29.607 21.384 65.375 33.159 102.76 33.159 37.04 0 72.977-11.69 102.771-33.187v21.348c0 14.958 12.169 27.127 27.127 27.127h47.963c14.958 0 27.127-12.169 27.127-27.127v-64.812h12.276c13.987 0 26.513-7.232 33.506-19.346 6.994-12.113 6.994-26.577 0-38.691zm-250.769 119.687c-48.061 0-93.213-21.261-123.881-58.331-2.641-3.192-7.37-3.638-10.56-.998-3.191 2.641-3.638 7.368-.998 10.56 5.485 6.63 11.402 12.788 17.679 18.467v33.46c0 6.688-5.442 12.13-12.13 12.13h-47.96c-6.688 0-12.13-5.442-12.13-12.13v-228.87c0-4.142-3.358-7.5-7.5-7.5h-19.78c-8.565 0-16.235-4.428-20.518-11.846s-4.281-16.275.002-23.694l63.391-109.771c4.279-7.413 11.945-11.84 20.506-11.842h.005c8.564 0 16.235 4.428 20.519 11.843l39.889 69.086c-49.378 31.139-82.254 86.161-82.254 148.725 0 30.206 7.796 60.001 22.547 86.164 1.378 2.444 3.921 3.818 6.54 3.818 1.248 0 2.512-.312 3.677-.968 3.608-2.034 4.884-6.608 2.85-10.217-13.485-23.918-20.613-51.166-20.613-78.796 0-88.616 72.099-160.71 160.72-160.71 56.041 0 107.685 29.096 136.884 76.488-6.788 3.3-12.542 8.596-16.51 15.469l-1.476 2.557c-23.841-42.869-69.074-69.875-118.898-69.875-75.029 0-136.07 61.041-136.07 136.07s61.041 136.07 136.07 136.07c34.945 0 67.939-13.12 93.263-37.009h9.508v24.49c-28.811 23.987-65.17 37.16-102.772 37.16zm56.978-80.997c4.13 7.155 10.2 12.588 17.351 15.853-2.409 1.882-4.878 3.667-7.405 5.352l-4.286-7.423c-2.071-3.587-6.658-4.817-10.245-2.745-3.587 2.071-4.816 6.658-2.745 10.245l4.3 7.448c-14.369 7.167-30.108 11.396-46.45 12.39v-19.462c0-4.142-3.358-7.5-7.5-7.5s-7.5 3.358-7.5 7.5v19.459c-16.588-1.019-32.282-5.392-46.413-12.451l4.263-7.384c2.071-3.587.842-8.174-2.745-10.245-3.588-2.073-8.174-.842-10.245 2.745l-4.252 7.364c-13.451-8.951-25.017-20.517-33.968-33.968l7.363-4.251c3.587-2.071 4.816-6.658 2.745-10.245-2.072-3.587-6.658-4.816-10.245-2.745l-7.383 4.263c-7.058-14.131-11.431-29.824-12.45-46.413h19.458c4.142 0 7.5-3.358 7.5-7.5s-3.358-7.5-7.5-7.5h-19.458c1.019-16.588 5.392-32.282 12.45-46.413l7.383 4.263c1.181.682 2.471 1.006 3.743 1.006 2.592 0 5.113-1.345 6.502-3.751 2.071-3.587.842-8.174-2.745-10.245l-7.363-4.251c8.951-13.452 20.516-25.018 33.968-33.969l4.252 7.364c1.389 2.406 3.91 3.751 6.502 3.751 1.272 0 2.562-.324 3.743-1.006 3.587-2.071 4.816-6.658 2.745-10.245l-4.263-7.384c14.131-7.058 29.825-11.431 46.413-12.451v19.459c0 4.142 3.358 7.5 7.5 7.5s7.5-3.358 7.5-7.5v-19.45c16.435 1.01 32.173 5.319 46.433 12.407l-4.283 7.418c-2.071 3.587-.842 8.174 2.745 10.245 1.181.682 2.471 1.006 3.743 1.006 2.592 0 5.113-1.346 6.502-3.751l4.293-7.436c13.359 8.856 24.956 20.371 33.987 34.005l-7.425 4.287c-3.587 2.071-4.816 6.658-2.745 10.245 1.389 2.406 3.91 3.751 6.502 3.751 1.272 0 2.562-.325 3.743-1.006l7.405-4.275c.53 1.065 1.051 2.137 1.552 3.222l-52.97 91.727c-6.994 12.112-6.995 26.576-.002 38.69zm180.801-7.499c-4.282 7.417-11.951 11.845-20.516 11.845h-19.776c-4.142 0-7.5 3.358-7.5 7.5v72.312c0 6.687-5.44 12.127-12.127 12.127h-47.963c-6.687 0-12.127-5.44-12.127-12.127v-72.312c0-4.142-3.358-7.5-7.5-7.5h-19.786c-8.564 0-16.234-4.428-20.516-11.846-4.282-7.417-4.281-16.273.001-23.69l63.393-109.775c4.283-7.416 11.952-11.843 20.515-11.842 8.563 0 16.232 4.428 20.515 11.844l63.386 109.775c4.283 7.416 4.284 16.272.001 23.689z"/></g></symbol></svg>