<svg xmlns="http://www.w3.org/2000/svg" style="display: none;"><symbol id="helmet" viewBox="0 0 512 512"><title>helmet</title><path d="m216 136h80a160 160 0 0 1 160 160v16a0 0 0 0 1 0 0h-400a0 0 0 0 1 0 0v-16a160 160 0 0 1 160-160z" fill="#ffd33a"/><path d="m192 104h128a16 16 0 0 1 16 16v176a0 0 0 0 1 0 0h-160a0 0 0 0 1 0 0v-176a16 16 0 0 1 16-16z" fill="#eba72e"/><path d="m24 328 32-16v48h-32z" fill="#e09f2c"/><path d="m456 312 32 16v32h-32z" fill="#e09f2c"/><path d="m288 179.611v-91.611h-64v91.611a128 128 0 0 1 -115.864 127.424l-52.136 4.965v48h400v-48l-52.136-4.965a128 128 0 0 1 -115.864-127.424z" fill="#ffb632"/><path d="m88 328h32v32h-32z" fill="#e09f2c"/><path d="m392 328h32v32h-32z" fill="#e09f2c"/><path d="m24 360v32h32l32 32h336l32-32h32v-32z" fill="#ffd33a"/><path d="m491.578 320.845-27.578-13.789v-11.056a167.9 167.9 0 0 0 -120-161.026v-14.974a24.027 24.027 0 0 0 -24-24h-24v-8a8 8 0 0 0 -8-8h-64a8 8 0 0 0 -8 8v8h-24a24.027 24.027 0 0 0 -24 24v14.974a167.9 167.9 0 0 0 -120 161.026v11.056l-27.578 13.789a8 8 0 0 0 -4.422 7.155v64a8 8 0 0 0 8 8h28.687l29.656 29.657a8 8 0 0 0 5.657 2.343h336a8 8 0 0 0 5.657-2.343l29.656-29.657h28.687a8 8 0 0 0 8-8v-64a8 8 0 0 0 -4.422-7.155zm-11.578 31.155h-16v-27.056l16 8zm-76.894-37 12.894 1.227v35.773h-16v-37.333q1.55.183 3.106.333zm28.894 2.75 16 1.524v32.726h-16zm16-21.75v7.2l-43.377-4.131a120 120 0 0 1 -60.623-23.269v-124.059a151.913 151.913 0 0 1 104 144.259zm-128-184a8.009 8.009 0 0 1 8 8v141.435a119.66 119.66 0 0 1 -32-81.824v-67.611zm-88 67.611v-83.611h48v83.611a136.012 136.012 0 0 0 104 132.189v40.2h-96v-72a8 8 0 0 0 -16 0v72h-32v-72a8 8 0 0 0 -16 0v72h-96v-40.2a136.012 136.012 0 0 0 104-132.189zm-168 139.663 16-1.524v34.25h-16zm32-3.047 12.894-1.227q1.557-.149 3.106-.332v37.332h-16zm96-204.227h24v67.611a119.665 119.665 0 0 1 -32 81.825v-141.436a8.009 8.009 0 0 1 8-8zm-24 39.741v124.059a120 120 0 0 1 -60.623 23.274l-43.377 4.126v-7.2a151.913 151.913 0 0 1 104-144.259zm-120 173.203v27.056h-16v-19.056zm408 59.056a8 8 0 0 0 -5.657 2.343l-29.656 29.657h-329.374l-29.656-29.657a8 8 0 0 0 -5.657-2.343h-24v-16h448v16z"/></symbol><symbol id="like" viewBox="0 0 511.995 511.995"><title>like</title><g><g><path d="m302.095 296.045c.033 16.788 13.651 30.379 30.439 30.379h129.932c13.509 0 24.462-10.953 24.462-24.47 0-6.755-2.73-12.878-7.157-17.305s-10.55-7.165-17.305-7.165h8.783c13.509 0 24.47-10.945 24.47-24.47 0-6.762-2.73-12.87-7.173-17.305-4.419-4.427-10.534-7.157-17.297-7.157h8.79c13.343 0 24.193-10.692 24.454-23.98.276-13.73-11.276-24.959-25.006-24.959h-8.238c13.509 0 24.47-10.953 24.47-24.478 0-6.762-2.73-12.87-7.173-17.305-4.419-4.427-10.534-7.157-17.297-7.157h-68.82c-.098-.154-.128-.201-.226-.355l26.837-57.17c7.615-16.208.639-35.517-15.569-43.132-4.45-2.091-9.138-3.077-13.754-3.077-12.184 0-23.854 6.897-29.378 18.654l-11.473 24.446c-6.778 14.432-17.636 26.632-31.382 34.696-9.075 5.318-16.634 13.43-21.25 23.815-3.148 7.086-4.561 14.551-4.427 21.881z" fill="#ffddce"/><g fill="#ffcbbe"><path d="m423.501 37.349c-1.105-.118-2.209-.174-3.314-.174-12.184 0-23.854 6.897-29.378 18.654l-11.473 24.446c-6.778 14.432-17.636 26.632-31.382 34.696-9.075 5.318-41.719 13.58-42.926 75.421-.095 4.829-1.839 9.288-3.117 13.738l-.103-53.698c-.134-7.331 1.278-14.795 4.427-21.881 4.616-10.384 12.176-18.496 21.25-23.815 13.746-8.065 24.604-20.264 31.382-34.696l11.473-24.446c5.524-11.757 17.194-18.654 29.378-18.654 4.616 0 9.303.986 13.754 3.077 3.905 1.832 7.275 4.35 10.029 7.332z"/><path d="m486.928 301.955c0 13.517-10.953 24.47-24.462 24.47h-133.325c-14.109 0-27.192-6.818-35.288-18.023h168.613c10.329 0 19.159-6.4 22.749-15.458.008.008.008.024.024.032 0 0-.008.008 0 .008 1.089 2.776 1.689 5.806 1.689 8.971z"/><path d="m493.991 244.003c1.105 2.791 1.719 5.83 1.719 9.011 0 13.523-10.951 24.474-24.464 24.474h-9.376c-4.977 0-9.012-4.035-9.012-9.012 0-4.977 4.035-9.012 9.012-9.012h9.376c10.331.001 19.158-6.403 22.745-15.461z"/><path d="m502.781 195.065c1.105 2.791 1.719 5.83 1.719 9.011 0 13.523-10.951 24.474-24.464 24.474h-9.376c-4.977 0-9.012-4.035-9.012-9.012 0-4.977 4.035-9.012 9.012-9.012h9.376c10.331.001 19.158-6.404 22.745-15.461z"/><path d="m494.002 146.126c1.105 2.791 1.719 5.83 1.719 9.011 0 13.523-10.951 24.474-24.464 24.474h-9.376c-4.977 0-9.012-4.035-9.012-9.012 0-4.977 4.035-9.012 9.012-9.012h9.376c10.33.001 19.157-6.403 22.745-15.461z"/></g><path d="m225.702 150.433v152.591c0 10.583 8.579 19.162 19.162 19.162h37.783c10.583 0 19.162-8.579 19.162-19.162v-152.591c0-10.583-8.579-19.162-19.162-19.162h-37.783c-10.582 0-19.162 8.579-19.162 19.162z" fill="#95d6a4"/><path d="m225.697 254.961v48.068c0 10.582 8.585 19.157 19.168 19.157h37.782c10.583 0 19.157-8.575 19.157-19.157v-48.068c0 10.583-8.575 19.168-19.157 19.168h-37.782c-10.582 0-19.168-8.585-19.168-19.168z" fill="#78c2a4"/></g><g><circle cx="140.571" cy="361.625" fill="#d3effb" r="133.071"/><path d="m163.823 492.768c-7.369 1.277-14.952 1.933-22.682 1.933-73.494 0-133.075-59.582-133.075-133.075 0-73.494 59.582-133.075 133.075-133.075 7.73 0 15.314.655 22.682 1.933-62.678 10.759-110.382 65.379-110.382 131.143s47.703 120.382 110.382 131.141z" fill="#9dc6fb"/><path d="m140.571 378.578h-61.824c-9.362 0-16.952-7.59-16.952-16.952s7.59-16.952 16.952-16.952h61.824c9.362 0 16.952 7.59 16.952 16.952s-7.59 16.952-16.952 16.952z" fill="#365e7d"/><path d="m140.571 378.578c-9.362 0-16.952-7.59-16.952-16.952v-43.286c0-9.362 7.59-16.952 16.952-16.952s16.952 7.59 16.952 16.952v43.286c0 9.362-7.59 16.952-16.952 16.952z" fill="#2b4d66"/></g><g fill="#f6e266"><path d="m217.39 65.293-1.945.521c-6.86 1.838-13.973-1.949-16.276-8.668l-7.085-20.666c-2.538-7.402 1.724-15.405 9.283-17.431l4.833-1.295c7.558-2.025 15.251 2.775 16.754 10.454l4.197 21.439c1.365 6.971-2.901 13.808-9.761 15.646z"/><path d="m159.168 98.305-1.424 1.424c-5.022 5.022-13.075 5.298-18.429.631l-16.469-14.354c-5.899-5.142-6.209-14.204-.676-19.737l3.538-3.538c5.533-5.533 14.595-5.223 19.737.676l14.354 16.469c4.667 5.354 4.391 13.407-.631 18.429z"/><path d="m125.253 156.006-.521 1.945c-1.838 6.86-8.675 11.126-15.645 9.761l-21.439-4.197c-7.679-1.503-12.479-9.196-10.454-16.754l1.295-4.833c2.025-7.558 10.028-11.821 17.431-9.283l20.666 7.085c6.717 2.304 10.505 9.416 8.667 16.276z"/></g></g><g><path d="m503.22 253.016c0-7.78-2.759-15.135-7.813-20.948 9.674-5.369 16.354-15.613 16.582-27.339.173-8.499-3.065-16.582-9.118-22.759-2.247-2.292-4.813-4.228-7.593-5.759 4.942-5.631 7.942-13.009 7.942-21.074 0-8.55-3.329-16.58-9.36-22.598-6.024-6.038-14.054-9.362-22.609-9.362h-57.412l21.99-46.841c9.356-19.916.758-43.74-19.17-53.107-5.343-2.509-11.042-3.781-16.938-3.781-15.424 0-29.621 9.014-36.17 22.965l-11.466 24.437c-.36.765-.729 1.521-1.115 2.267-1.904 3.678-.468 8.204 3.211 10.109 3.676 1.904 8.204.468 10.109-3.21.473-.913.925-1.838 1.37-2.784l11.469-24.448c4.089-8.709 12.956-14.337 22.591-14.337 3.676 0 7.229.793 10.56 2.357 12.441 5.849 17.812 20.721 11.972 33.155l-26.84 57.17c-1.08 2.3-.922 4.991.42 7.148l.229.36c1.369 2.201 3.777 3.539 6.369 3.539h68.82c4.543 0 8.801 1.76 12.003 4.969 3.203 3.195 4.967 7.454 4.967 11.991 0 9.363-7.612 16.98-16.97 16.98-4.143 0-7.5 3.358-7.5 7.5s3.357 7.5 7.5 7.5h8.24c4.717 0 9.334 1.95 12.666 5.351 3.208 3.275 4.926 7.521 4.835 11.962-.179 9.168-7.783 16.626-16.951 16.626h-8.79c-4.143 0-7.5 3.358-7.5 7.5s3.357 7.5 7.5 7.5c4.542 0 8.803 1.759 11.997 4.954 3.207 3.207 4.973 7.47 4.973 12.006 0 9.357-7.612 16.97-16.97 16.97h-8.78c-4.143 0-7.5 3.358-7.5 7.5s3.357 7.5 7.5 7.5c4.528 0 8.791 1.765 11.986 4.953 1.62 1.626 2.878 3.518 3.741 5.625.021.057.042.113.063.169.775 1.97 1.169 4.064 1.169 6.223 0 9.357-7.608 16.97-16.96 16.97h-133.329c-7.792 0-15.211-2.459-21.361-7.006.988-2.783 1.531-5.776 1.531-8.894v-152.59c0-.032-.002-.064-.002-.096 0-.016.002-.031.001-.047-.124-6.476 1.147-12.766 3.775-18.69 3.827-8.609 10.117-15.662 18.186-20.394 4.574-2.678 8.932-5.827 12.951-9.359 3.111-2.734 3.417-7.473.683-10.584-2.734-3.112-7.474-3.417-10.585-.683-3.302 2.902-6.877 5.486-10.632 7.685-10.795 6.331-19.201 15.751-24.312 27.248-.468 1.056-.9 2.122-1.304 3.194-4.357-3.102-9.677-4.934-15.421-4.934h-37.79c-14.695 0-26.65 11.959-26.65 26.66v94.068c-22.261-14.806-48.958-23.448-77.64-23.448-77.51.001-140.57 63.06-140.57 140.57 0 8.17.707 16.351 2.103 24.314.716 4.08 4.606 6.81 8.682 6.093 4.08-.715 6.809-4.602 6.094-8.682-.819-4.675-1.367-9.437-1.651-14.226h20.419c4.143 0 7.5-3.358 7.5-7.5s-3.357-7.5-7.5-7.5h-20.417c1.031-17.406 5.622-33.868 13.055-48.668l7.881 4.55c1.182.682 2.471 1.006 3.743 1.006 2.592 0 5.113-1.346 6.502-3.751 2.071-3.587.842-8.174-2.745-10.245l-7.859-4.537c9.356-14.128 21.49-26.261 35.618-35.618l4.537 7.859c1.389 2.406 3.91 3.751 6.502 3.751 1.272 0 2.562-.324 3.743-1.006 3.587-2.071 4.816-6.658 2.745-10.245l-4.549-7.88c14.8-7.433 31.262-12.024 48.667-13.055v20.415c0 4.142 3.357 7.5 7.5 7.5s7.5-3.358 7.5-7.5v-20.415c17.406 1.031 33.867 5.622 48.667 13.055l-4.549 7.879c-2.071 3.587-.842 8.174 2.745 10.245 1.182.682 2.471 1.006 3.743 1.006 2.592 0 5.113-1.346 6.502-3.751l4.536-7.857c14.128 9.356 26.261 21.489 35.617 35.617l-7.857 4.536c-3.587 2.071-4.816 6.658-2.745 10.245 1.389 2.406 3.91 3.751 6.502 3.751 1.272 0 2.562-.324 3.743-1.006l7.879-4.549c7.434 14.8 12.024 31.261 13.055 48.667h-20.414c-4.143 0-7.5 3.358-7.5 7.5s3.357 7.5 7.5 7.5h20.414c-1.031 17.405-5.621 33.867-13.054 48.667l-7.879-4.549c-3.59-2.072-8.176-.842-10.245 2.745-2.071 3.587-.842 8.174 2.745 10.245l7.858 4.537c-9.356 14.128-21.489 26.262-35.617 35.618l-4.537-7.858c-2.07-3.588-6.657-4.816-10.245-2.745-3.587 2.071-4.816 6.658-2.745 10.245l4.549 7.88c-14.8 7.434-31.262 12.025-48.667 13.056v-20.414c0-4.142-3.357-7.5-7.5-7.5s-7.5 3.358-7.5 7.5v20.404c-17.25-1.021-33.759-5.537-48.693-12.999l4.575-7.925c2.071-3.587.842-8.174-2.745-10.245-3.589-2.072-8.175-.843-10.245 2.745l-4.585 7.942c-14.032-9.256-26.2-21.333-35.64-35.661l7.929-4.578c3.587-2.071 4.816-6.658 2.745-10.245-2.07-3.588-6.659-4.817-10.245-2.745l-7.911 4.567c-1.199-2.399-2.343-4.838-3.398-7.334-1.613-3.815-6.012-5.599-9.828-3.988-3.815 1.612-5.601 6.013-3.988 9.828 22.049 52.17 72.892 85.88 129.528 85.88 77.51 0 140.569-63.06 140.569-140.57 0-10.983-1.269-21.675-3.663-31.94h5.174c6.151 0 11.817-2.099 16.333-5.611 8.693 6.395 19.162 9.852 30.157 9.852h133.33c17.623 0 31.96-14.342 31.96-31.97 0-3.96-.712-7.819-2.117-11.476-.031-.091-.065-.181-.102-.271-1.336-3.367-3.202-6.442-5.569-9.178 9.875-5.448 16.578-15.964 16.578-28.016zm-220.57 61.669h-9.581c-8.119-22.849-21.987-42.995-39.86-58.69v-105.56c0-6.429 5.227-11.66 11.65-11.66h37.79c6.429 0 11.659 5.231 11.659 11.66v152.59c.002 6.43-5.229 11.66-11.658 11.66z"/><path d="m140.572 386.078c.001 0 .001 0 0 0 13.483-.001 24.451-10.97 24.451-24.452v-43.287c0-13.483-10.969-24.452-24.452-24.452s-24.452 10.969-24.452 24.452v18.834h-37.378c-13.483 0-24.452 10.969-24.452 24.453 0 13.483 10.969 24.452 24.452 24.452zm-9.453-67.739c0-5.212 4.24-9.452 9.452-9.452s9.452 4.24 9.452 9.452v43.287c0 5.212-4.24 9.452-9.452 9.452s-9.452-4.24-9.452-9.452zm-61.83 43.286c0-5.212 4.24-9.453 9.452-9.453h37.378v9.453c0 3.349.678 6.543 1.902 9.452h-39.28c-5.212.001-9.452-4.24-9.452-9.452z"/><path d="m192.074 59.579c2.964 8.645 11.136 14.193 19.909 14.193 1.788 0 3.603-.231 5.401-.713l1.945-.521h.001c10.626-2.848 17.294-13.535 15.181-24.33l-4.197-21.439c-1.114-5.692-4.575-10.718-9.496-13.788-4.921-3.072-10.958-3.971-16.56-2.47l-4.834 1.295c-5.602 1.501-10.379 5.298-13.105 10.418s-3.211 11.203-1.33 16.689zm7.485-30.305c.792-1.486 2.123-2.544 3.749-2.979l4.833-1.295c.522-.14 1.049-.209 1.572-.209 1.107 0 2.195.31 3.165.916 1.428.891 2.393 2.292 2.716 3.944l4.197 21.439c.604 3.087-1.303 6.145-4.342 6.959l-1.946.521c-3.037.814-6.219-.879-7.239-3.856l-7.085-20.665c-.546-1.593-.411-3.289.38-4.775z"/><path d="m117.919 91.66 16.468 14.355c3.951 3.443 8.877 5.148 13.795 5.148 5.402 0 10.794-2.059 14.866-6.13l1.424-1.424c7.778-7.778 8.21-20.368.981-28.66l-14.354-16.469c-3.811-4.373-9.321-6.995-15.118-7.193-5.771-.199-11.474 2.039-15.576 6.141l-3.538 3.538c-4.102 4.102-6.34 9.778-6.141 15.575.198 5.798 2.82 11.308 7.193 15.119zm9.555-20.087 3.538-3.538c1.14-1.14 2.639-1.76 4.241-1.76.071 0 .143.001.214.004 1.683.058 3.219.788 4.325 2.057l14.354 16.469c2.067 2.372 1.944 5.973-.281 8.198l-1.423 1.423c-2.226 2.226-5.825 2.348-8.199.281l-16.468-14.354c-1.27-1.106-2-2.642-2.058-4.325s.566-3.265 1.757-4.455z"/><path d="m86.206 170.876 21.44 4.197c1.346.263 2.688.39 4.015.39 9.322 0 17.823-6.27 20.314-15.57l.521-1.945v-.001c2.847-10.626-3.074-21.744-13.479-25.312l-20.666-7.085c-5.488-1.881-11.569-1.396-16.69 1.331-5.119 2.727-8.916 7.504-10.416 13.104l-1.296 4.834c-1.502 5.603-.602 11.638 2.469 16.56 3.071 4.921 8.097 8.383 13.788 9.497zm-1.768-22.172 1.297-4.835c.435-1.626 1.493-2.957 2.979-3.749.887-.472 1.847-.71 2.815-.71.655 0 1.315.109 1.958.33l20.667 7.085c2.976 1.02 4.669 4.2 3.855 7.239l-.521 1.946c-.814 3.039-3.873 4.946-6.959 4.342l-21.44-4.197c-1.651-.323-3.053-1.288-3.943-2.716-.893-1.429-1.144-3.11-.708-4.735z"/></g></symbol></svg>