<?xml version="1.0" standalone="no"?>
<!DOCTYPE svg PUBLIC "-//W3C//DTD SVG 1.1//EN" "http://www.w3.org/Graphics/SVG/1.1/DTD/svg11.dtd" >
<!--
2018-5-10: Created with FontForge (http://fontforge.org)
-->
<svg xmlns="http://www.w3.org/2000/svg" xmlns:xlink="http://www.w3.org/1999/xlink" version="1.1">
<metadata>
Created by FontForge 20180321 at Thu May 10 14:48:40 2018
 By Kevin Ports
Copyright (c) 2018, Kevin Ports
</metadata>
<defs>
<font id="Ionicons" horiz-adv-x="416" >
  <font-face 
    font-family="Ionicons"
    font-weight="400"
    font-stretch="normal"
    units-per-em="512"
    panose-1="2 0 5 3 0 0 0 0 0 0"
    ascent="448"
    descent="-64"
    bbox="-0.75 -64 512.487 448"
    underline-thickness="25.6"
    underline-position="-51.2"
    unicode-range="U+F100-F4CD"
  />
    <missing-glyph />
    <glyph glyph-name="ion-ios-add-circle-outline" unicode="&#xf100;" 
d="M298 208c9 0 16 -7 16 -16s-7 -16 -16 -16h-74v-74c0 -9 -7 -16 -16 -16s-16 6 -16 16v74h-74s-16 6 -16 16s7 16 16 16h74v74c0 9 7 16 16 16s16 -7 16 -16v-74h74zM208 372c-48 0 -93 -19 -127 -53s-53 -79 -53 -127s19 -93 53 -127s79 -53 127 -53s93 19 127 53
s53 79 53 127s-19 93 -53 127s-79 53 -127 53zM208 400v0c115 0 208 -93 208 -208s-93 -208 -208 -208s-208 93 -208 208s93 208 208 208z" />
    <glyph glyph-name="ion-ios-add-circle" unicode="&#xf101;" 
d="M208 400c115 0 208 -93 208 -208s-93 -208 -208 -208s-208 93 -208 208s93 208 208 208zM298 176c9 0 16 7 16 16s-7 16 -16 16h-74v74c0 9 -7 16 -16 16s-16 -7 -16 -16v-74h-74c-9 0 -16 -7 -16 -16c0 -4 1 -8 4 -11s8 -5 12 -5h74v-74c0 -4 2 -9 5 -12s7 -4 11 -4
c9 0 16 7 16 16v74h74z" />
    <glyph glyph-name="ion-ios-add" unicode="&#xf102;" horiz-adv-x="257" 
d="M241 208c9 0 16 -7 16 -16s-7 -16 -16 -16h-97v-96c0 -9 -7 -16 -16 -16c-4 0 -8 1 -11 4s-5 8 -5 12v96h-96c-4 0 -8 2 -11 5s-5 7 -5 11c0 9 7 16 16 16h96v96c0 9 7 16 16 16s16 -7 16 -16v-96h97z" />
    <glyph glyph-name="ion-ios-airplane" unicode="&#xf137;" horiz-adv-x="448" 
d="M376 224c44 0 72 -14 72 -32s-28 -32 -72 -32h-18l-65 2c-1 0 -2 0 -2 -1l-97 -146c-3 -5 -8 -7 -14 -7h-23c-6 0 -8 6 -6 11l50 143c0 1 -1 2 -2 2l-121 3c-2 0 -5 -1 -7 -3l-38 -46c-3 -4 -7 -6 -12 -6h-17c-3 0 -5 3 -4 6l20 68c2 4 2 8 0 12l-20 69c-1 3 1 5 4 5h17
c5 0 9 -2 12 -6l37 -45c2 -2 4 -3 7 -3l122 2c1 0 2 1 2 2l-50 143c-2 5 0 11 6 11h23c5 0 11 -2 14 -7l97 -146c0 -1 1 -1 2 -1l65 2h18z" />
    <glyph glyph-name="ion-ios-alarm" unicode="&#xf3c8;" horiz-adv-x="384" 
d="M317 384c38 -2 67 -33 67 -69c0 -18 -7 -26 -16 -37c-1 -1 -3 -2 -5 -2h-1c-2 0 -3 1 -4 2l-90 80c-2 1 -2 4 -2 6s0 4 2 5c13 10 29 15 45 15v0h4zM0 315c0 36 29 67 67 69h4v0c16 0 32 -5 45 -15c2 -1 2 -3 2 -5s0 -5 -2 -6l-90 -80c-1 -1 -2 -2 -4 -2h-1
c-2 0 -4 1 -5 2c-9 11 -16 19 -16 37zM326 62l35 -36c6 -6 5 -15 -1 -21c-3 -3 -8 -5 -12 -5s-8 2 -11 5l-34 35c-30 -25 -69 -40 -111 -40s-81 15 -111 40l-35 -35c-3 -3 -7 -5 -11 -5s-8 2 -11 5c-6 6 -7 15 -1 21l35 36c-26 31 -42 70 -42 114c0 97 79 176 176 176
s176 -79 176 -176c0 -44 -16 -83 -42 -114zM206 174v116c0 8 -6 14 -14 14s-14 -6 -14 -14v-102h-68c-8 0 -14 -6 -14 -14s6 -14 14 -14h82c8 0 14 6 14 14z" />
    <glyph glyph-name="ion-ios-albums" unicode="&#xf3ca;" horiz-adv-x="480" 
d="M445 287c19 0 35 -16 35 -35v-232c0 -19 -16 -35 -35 -35h-410c-19 0 -35 16 -35 35v232c0 19 16 35 35 35h410zM418 315h-356c-8 0 -14 6 -14 14v0c0 8 6 14 14 14h356c8 0 14 -6 14 -14v0c0 -8 -6 -14 -14 -14zM387 371h-294c-7 0 -13 6 -13 13v2c0 7 6 13 13 13h294
c7 0 13 -6 13 -13v-2c0 -7 -6 -13 -13 -13z" />
    <glyph glyph-name="ion-ios-alert" unicode="&#xf104;" 
d="M208 400c115 0 208 -93 208 -208s-93 -208 -208 -208s-208 93 -208 208s93 208 208 208zM225 290c0 10 -7 18 -17 18v0c-10 0 -17 -8 -17 -18l3 -115c0 -8 6 -15 14 -15v0c8 0 14 7 14 15zM208 94c11 0 19 8 19 18s-8 19 -19 19s-19 -9 -19 -19s8 -18 19 -18z" />
    <glyph glyph-name="ion-ios-american-football" unicode="&#xf106;" 
d="M331 315c40 -40 62 -96 73 -148l-171 -171c-52 11 -108 33 -148 73s-62 95 -73 148l171 171c52 -11 108 -33 148 -73zM296 160c5 5 5 13 1 18c-3 3 -7 4 -11 4c-3 0 -6 -2 -8 -4l-19 -19l-16 16l20 19c3 3 5 8 3 13c0 1 -1 1 -1 2c-3 5 -7 8 -13 7c-3 0 -6 -2 -8 -4
l-19 -19l-16 16l20 19c3 3 5 8 3 13c-1 2 -1 5 -3 6v0c-3 3 -8 4 -12 3c-3 0 -5 -2 -7 -4l-19 -19l-16 16l20 19c3 3 5 8 3 13c0 1 -1 1 -1 2c-3 5 -7 8 -13 7c-3 0 -6 -2 -8 -4l-19 -19l-15 15c-5 5 -13 5 -18 0v0c-5 -5 -5 -13 0 -18l15 -15l-19 -19c-3 -3 -6 -8 -4 -13
c0 -1 1 -1 1 -2c3 -5 8 -8 14 -7c3 0 5 2 7 4l20 19l15 -16l-19 -19c-3 -3 -6 -8 -4 -13c0 -1 1 -1 1 -2c3 -5 8 -8 14 -7c3 0 5 2 7 4l19 19l16 -16l-20 -19c-3 -3 -5 -8 -3 -13c0 -1 1 -1 1 -2c3 -5 7 -8 13 -7c3 0 6 2 8 4l19 19l16 -16l-20 -19c-3 -3 -4 -8 -3 -13
c1 -2 1 -3 3 -5v0c3 -3 8 -5 12 -4c3 0 5 2 7 4l19 19l15 -15c5 -5 13 -5 18 0v0c5 5 5 13 0 18l-15 15zM347 -16c-24 0 -54 1 -85 6l148 148c10 -66 5 -125 3 -144c0 -4 -3 -7 -7 -7c-10 -1 -31 -3 -59 -3zM69 400c24 0 54 -1 85 -6l-148 -148c-10 66 -5 125 -3 144
c0 4 3 7 7 7c10 1 31 3 59 3z" />
    <glyph glyph-name="ion-ios-analytics" unicode="&#xf3ce;" 
d="M208 400c115 0 208 -93 208 -208s-93 -208 -208 -208s-208 93 -208 208s93 208 208 208zM28 192c0 -12 1 -23 3 -34c6 -5 20 -16 37 -13c12 2 28 25 38 41c4 6 8 12 11 16c17 21 34 23 45 21c24 -3 43 -27 52 -49c7 -18 20 -28 33 -29c15 -1 31 10 42 29c1 2 3 5 4 7
c9 17 23 43 51 43c20 0 35 -14 44 -24c-2 45 -21 87 -53 119c-34 34 -79 53 -127 53s-93 -19 -127 -53s-53 -79 -53 -127z" />
    <glyph glyph-name="ion-ios-aperture" unicode="&#xf108;" 
d="M202 77h179c-25 -37 -61 -66 -103 -81l-22 22l-55 55c-1 1 -1 4 1 4zM119 113c0 2 2 3 3 2l127 -127c-13 -3 -27 -4 -41 -4c-32 0 -62 7 -89 20v109zM208 400c32 0 63 -7 90 -20v-109c0 -2 -3 -3 -4 -2l-126 127c13 3 26 4 40 4zM20 281h110c2 0 2 -2 1 -3l-127 -127
c-3 13 -4 27 -4 41c0 32 7 62 20 89zM139 388l77 -77c1 -1 1 -4 -1 -4h-180c25 37 61 66 104 81zM119 227c0 1 0 2 1 3l50 50c1 1 2 1 3 1h71c1 0 1 0 2 -1l50 -50c1 -1 2 -2 2 -3v-70c0 -1 -1 -2 -2 -3l-50 -50c-1 -1 -1 -1 -2 -1h-71c-1 0 -2 0 -3 1l-50 50
c-1 1 -1 2 -1 3v70zM412 232c3 -13 4 -26 4 -40c0 -32 -7 -62 -20 -89h-109c-2 0 -2 2 -1 3zM324 365c37 -25 65 -61 80 -104l-77 -77c-1 -1 -3 0 -3 2v179zM12 122l78 78c1 1 3 0 3 -2v-179c-37 25 -66 60 -81 103z" />
    <glyph glyph-name="ion-ios-apps" unicode="&#xf10a;" horiz-adv-x="384" 
d="M371 310c18 -8 18 -21 0 -29l-148 -67c-17 -8 -45 -8 -62 0l-148 67c-18 8 -18 21 0 29l150 68c16 7 43 7 59 0zM161 73c17 -8 45 -8 62 0l100 45c4 2 9 2 13 0l35 -16c18 -8 18 -21 0 -29l-148 -67c-17 -8 -45 -8 -62 0l-148 67c-18 8 -18 21 0 29l35 16c4 2 10 2 14 0z
M371 206c18 -8 18 -21 0 -29l-148 -67c-17 -8 -45 -8 -62 0l-148 67c-18 8 -18 21 0 29l32 15c4 2 9 2 13 0l108 -49c15 -5 37 -5 52 0l108 49c4 2 9 2 13 0z" />
    <glyph glyph-name="ion-ios-appstore" unicode="&#xf10c;" 
d="M208 400c115 0 208 -93 208 -208s-93 -208 -208 -208s-208 93 -208 208s93 208 208 208zM129 103l18 30c-2 6 -10 12 -20 12h-2c-3 0 -5 -2 -7 -4l-14 -23c-4 -7 -2 -16 5 -20c2 -1 6 -2 8 -2c5 0 9 2 12 7zM249 150c0 0 1 1 1 4c0 5 -1 9 -4 14l-1 1c-3 6 -11 9 -18 9
h-54v0l37 62l16 28l18 30c4 7 2 16 -5 20s-16 2 -20 -5l-9 -16v0l-10 16c-4 7 -13 9 -20 5s-8 -13 -4 -20l17 -30v0l-53 -90v0h-45c-8 0 -15 -6 -15 -14s6 -15 14 -15h29h33zM322 149c8 0 14 7 14 15s-7 14 -15 14h-41v0l-49 82s-4 -1 -8 -9c-6 -11 -5 -25 1 -36l22 -37
l17 -29l27 -46c3 -4 7 -7 12 -7c3 0 6 1 8 2c7 4 9 13 5 20l-19 31v0h26z" />
    <glyph glyph-name="ion-ios-archive" unicode="&#xf10e;" 
d="M412 328h-408c-2 0 -4 2 -4 4v20c0 18 14 32 32 32h352c18 0 32 -14 32 -32v-20c0 -2 -2 -4 -4 -4zM392 302c4 0 8 -4 8 -8v-262c0 -18 -14 -32 -32 -32h-320c-18 0 -32 14 -32 32v262c0 4 4 8 8 8h368zM258 160c8 0 15 8 14 16c-1 7 -7 12 -14 12h-100
c-8 0 -15 -8 -14 -16c1 -7 7 -12 14 -12h100z" />
    <glyph glyph-name="ion-ios-arrow-back" unicode="&#xf3cf;" horiz-adv-x="192" 
d="M58 192l127 -127c9 -9 9 -25 0 -34c-5 -5 -11 -7 -17 -7s-12 2 -17 7l-145 145c-9 9 -8 24 1 33l144 144c9 9 25 9 34 0s9 -25 0 -34z" />
    <glyph glyph-name="ion-ios-arrow-down" unicode="&#xf3d0;" horiz-adv-x="336" 
d="M168 154l127 127c9 9 25 9 34 0s9 -25 0 -34l-144 -144c-9 -9 -24 -10 -33 -1l-145 145c-5 5 -7 11 -7 17s2 12 7 17c9 9 25 9 34 0z" />
    <glyph glyph-name="ion-ios-arrow-dropdown-circle" unicode="&#xf125;" 
d="M0 192c0 115 93 208 208 208s208 -93 208 -208s-93 -208 -208 -208s-208 93 -208 208zM289 235l-81 -79l-81 81c-8 8 -19 8 -27 0s-8 -19 0 -27l95 -95c7 -7 19 -8 27 -1l94 94c4 4 6 9 6 14s-2 9 -6 13c-8 8 -19 8 -27 0z" />
    <glyph glyph-name="ion-ios-arrow-dropdown" unicode="&#xf110;" 
d="M100 237c8 8 19 8 27 0l81 -81l81 79c8 8 19 8 27 0c4 -4 6 -8 6 -13s-2 -10 -6 -14l-94 -94c-8 -7 -20 -6 -27 1l-95 95c-8 8 -8 19 0 27zM0 192c0 115 93 208 208 208s208 -93 208 -208s-93 -208 -208 -208s-208 93 -208 208zM332 316c-33 33 -77 52 -124 52
s-91 -19 -124 -52s-52 -77 -52 -124s19 -91 52 -124s77 -52 124 -52s91 19 124 52s52 77 52 124s-19 91 -52 124z" />
    <glyph glyph-name="ion-ios-arrow-dropleft-circle" unicode="&#xf129;" 
d="M208 400c115 0 208 -93 208 -208s-93 -208 -208 -208s-208 93 -208 208s93 208 208 208zM251 111l-79 81l81 81c8 8 8 19 0 27s-19 8 -27 0l-95 -95c-7 -7 -8 -19 -1 -27l94 -94c4 -4 9 -6 14 -6s9 2 13 6c8 8 8 19 0 27z" />
    <glyph glyph-name="ion-ios-arrow-dropleft" unicode="&#xf112;" 
d="M253 300c8 -8 8 -19 0 -27l-81 -81l79 -81c8 -8 8 -19 0 -27c-4 -4 -8 -6 -13 -6s-10 2 -14 6l-94 94c-7 8 -6 20 1 27l95 95c8 8 19 8 27 0zM208 400c115 0 208 -93 208 -208s-93 -208 -208 -208s-208 93 -208 208s93 208 208 208zM332 68c33 33 52 77 52 124
s-19 91 -52 124s-77 52 -124 52s-91 -19 -124 -52s-52 -77 -52 -124s19 -91 52 -124s77 -52 124 -52s91 19 124 52z" />
    <glyph glyph-name="ion-ios-arrow-dropright-circle" unicode="&#xf12b;" 
d="M0 192c0 115 93 208 208 208s208 -93 208 -208s-93 -208 -208 -208s-208 93 -208 208zM244 192l-79 -81c-8 -8 -8 -19 0 -27c4 -4 8 -6 13 -6s10 2 14 6l94 94c7 8 6 20 -1 27l-95 95c-8 8 -19 8 -27 0s-8 -19 0 -27z" />
    <glyph glyph-name="ion-ios-arrow-dropright" unicode="&#xf114;" 
d="M163 300c8 8 19 8 27 0l95 -95c7 -7 8 -19 1 -27l-94 -94c-4 -4 -9 -6 -14 -6s-9 2 -13 6c-8 8 -8 19 0 27l80 81l-82 81c-8 7 -8 19 0 27zM0 192c0 115 93 208 208 208s208 -93 208 -208s-93 -208 -208 -208s-208 93 -208 208zM32 192c0 -47 19 -91 52 -124
s77 -52 124 -52s91 19 124 52s52 77 52 124s-19 91 -52 124s-77 52 -124 52s-91 -19 -124 -52s-52 -77 -52 -124z" />
    <glyph glyph-name="ion-ios-arrow-dropup-circle" unicode="&#xf12d;" 
d="M208 -16c-115 0 -208 93 -208 208s93 208 208 208s208 -93 208 -208s-93 -208 -208 -208zM208 228l81 -79c8 -8 19 -8 27 0c4 4 6 8 6 13s-2 10 -6 14l-94 94c-8 7 -20 6 -27 -1l-95 -95c-8 -8 -8 -19 0 -27s19 -8 27 0z" />
    <glyph glyph-name="ion-ios-arrow-dropup" unicode="&#xf116;" 
d="M100 147c-8 8 -8 19 0 27l95 95c7 7 19 8 27 1l94 -94c4 -4 6 -9 6 -14s-2 -9 -6 -13c-8 -8 -19 -8 -27 0l-81 79l-81 -81c-8 -8 -19 -8 -27 0zM208 -16c-115 0 -208 93 -208 208s93 208 208 208s208 -93 208 -208s-93 -208 -208 -208zM208 16c47 0 91 19 124 52
s52 77 52 124s-19 91 -52 124s-77 52 -124 52s-91 -19 -124 -52s-52 -77 -52 -124s19 -91 52 -124s77 -52 124 -52z" />
    <glyph glyph-name="ion-ios-arrow-forward" unicode="&#xf3d1;" horiz-adv-x="192" 
d="M134 192l-127 127c-9 9 -9 25 0 34s25 9 34 0l144 -144c9 -9 10 -24 1 -33l-145 -145c-5 -5 -11 -7 -17 -7s-12 2 -17 7c-9 9 -9 25 0 34z" />
    <glyph glyph-name="ion-ios-arrow-round-back" unicode="&#xf117;" horiz-adv-x="288" 
d="M104 284c5 -5 5 -13 0 -18l-60 -61h231c7 0 13 -6 13 -13s-6 -13 -13 -13h-231l60 -61c5 -5 5 -13 0 -18s-13 -5 -18 0l-82 83v0c-1 1 -2 2 -3 4s-1 3 -1 5c0 3 2 7 4 9l82 83c5 5 13 5 18 0z" />
    <glyph glyph-name="ion-ios-arrow-round-down" unicode="&#xf118;" horiz-adv-x="192" 
d="M188 152c5 -5 5 -13 0 -18l-83 -82c-2 -2 -6 -4 -9 -4c-2 0 -3 0 -5 1s-3 2 -4 3v0l-83 82c-5 5 -5 13 0 18s13 6 18 1l61 -61v231c0 7 6 13 13 13s13 -6 13 -13v-231l61 60c5 5 13 5 18 0z" />
    <glyph glyph-name="ion-ios-arrow-round-forward" unicode="&#xf119;" horiz-adv-x="288" 
d="M184 284c5 5 13 5 18 0l82 -83c2 -2 4 -6 4 -9c0 -2 0 -3 -1 -5s-2 -3 -3 -4v0l-82 -83c-5 -5 -13 -5 -18 0s-6 13 -1 18l61 61h-231c-7 0 -13 6 -13 13s6 13 13 13h231l-60 61c-5 5 -5 13 0 18z" />
    <glyph glyph-name="ion-ios-arrow-round-up" unicode="&#xf11a;" horiz-adv-x="192" 
d="M188 232c-5 -5 -13 -5 -18 0l-61 60v-231c0 -7 -6 -13 -13 -13s-13 6 -13 13v231l-61 -61c-5 -5 -13 -4 -18 1s-5 13 0 18l83 82v0c1 1 2 2 4 3s3 1 5 1c3 0 7 -2 9 -4l83 -82c5 -5 5 -13 0 -18z" />
    <glyph glyph-name="ion-ios-arrow-up" unicode="&#xf3d8;" horiz-adv-x="336" 
d="M168 230l-127 -127c-9 -9 -25 -9 -34 0c-5 5 -7 11 -7 17s2 12 7 17l145 145c9 9 24 8 33 -1l144 -144c9 -9 9 -25 0 -34s-25 -9 -34 0z" />
    <glyph glyph-name="ion-ios-at" unicode="&#xf3da;" horiz-adv-x="384" 
d="M384 214c0 -74 -35 -121 -90 -121c-28 0 -49 15 -53 37h-4c-10 -23 -30 -36 -57 -36c-49 0 -82 40 -82 98c0 56 33 94 81 94c25 0 46 -12 55 -32h4v28h39v-130c0 -16 9 -26 25 -26c28 0 46 34 46 86c0 83 -63 139 -155 139c-91 0 -156 -66 -156 -160
c0 -96 64 -158 164 -158c20 0 40 2 55 5c10 2 18 -6 18 -16v0c0 -7 -5 -13 -12 -15c-18 -4 -39 -7 -62 -7c-122 0 -200 75 -200 192c0 114 79 192 195 192c111 0 189 -69 189 -170zM141 191c0 -37 18 -60 46 -60c30 0 49 24 49 60s-20 59 -49 59s-46 -22 -46 -59z" />
    <glyph glyph-name="ion-ios-attach" unicode="&#xf11b;" horiz-adv-x="231" 
d="M216 287c9 0 15 -7 15 -16v-194c0 -14 -3 -28 -9 -42c-6 -13 -14 -25 -24 -35c-21 -20 -48 -32 -76 -32h-13c-28 0 -55 11 -76 32c-20 20 -33 49 -33 78v251c0 24 9 45 26 61s38 26 62 26s46 -10 62 -26c17 -16 26 -38 26 -61v-235c0 -18 -7 -33 -18 -44s-26 -18 -42 -18
c-34 0 -60 26 -60 62v134c0 9 7 16 16 16s15 -7 15 -16v-134c0 -19 15 -32 29 -32c15 0 29 15 29 32v235c0 15 -7 29 -17 39s-25 16 -40 16s-30 -6 -41 -16c-11 -11 -17 -24 -17 -39v-251c0 -20 9 -39 24 -55s35 -25 55 -25h13c20 0 42 9 56 24s22 35 22 55v194
c0 9 7 16 16 16z" />
    <glyph glyph-name="ion-ios-backspace" unicode="&#xf11d;" 
d="M347 352c38 0 69 -31 69 -69v-180c0 -38 -31 -71 -69 -71h-165c-45 0 -64 26 -102 64s-72 76 -72 76c-5 6 -8 13 -8 21s3 15 8 21c0 0 43 45 72 74s55 64 102 64h165zM329 139l-52 53l52 53c6 6 6 16 0 22s-16 6 -22 0l-53 -52l-53 52c-6 6 -15 7 -22 0s-6 -16 0 -22
s52 -53 52 -53s-45 -46 -52 -53s-6 -16 0 -22s16 -6 22 0l53 52l53 -52c6 -6 16 -6 22 0s6 16 0 22z" />
    <glyph glyph-name="ion-ios-barcode" unicode="&#xf3dc;" 
d="M74 60c4 0 7 -2 10 -5s4 -6 4 -10c0 -8 -7 -13 -15 -13h-56c-10 0 -17 6 -17 16v288c0 10 8 16 18 16h54c4 0 9 -1 12 -4s4 -6 4 -10c0 -8 -7 -14 -15 -14h-40c-2 0 -4 -2 -4 -4v-256c0 -2 2 -4 4 -4h41zM399 352c10 0 17 -6 17 -16v-288c0 -10 -7 -16 -17 -16h-57
c-4 0 -7 1 -10 4s-4 6 -4 10c0 8 7 14 15 14h40c2 0 4 2 4 4v256c0 2 -2 4 -4 4h-41c-5 0 -9 3 -12 8c0 1 -1 1 -1 2c-3 10 4 18 14 18h56zM74 272c8 0 14 -6 14 -14v-132c0 -8 -6 -14 -14 -14s-14 6 -14 14v132c0 8 6 14 14 14zM342 112c-8 0 -14 6 -14 14v132
c0 8 6 14 14 14s14 -6 14 -14v-132c0 -8 -6 -14 -14 -14zM278 304c8 0 14 -6 14 -14v-196c0 -8 -6 -14 -14 -14s-14 6 -14 14v196c0 8 6 14 14 14zM138 304c8 0 14 -6 14 -14v-196c0 -8 -6 -14 -14 -14s-14 6 -14 14v196c0 8 6 14 14 14zM208 288c8 0 14 -6 14 -14v-164
c0 -8 -6 -14 -14 -14s-14 6 -14 14v164c0 8 6 14 14 14z" />
    <glyph glyph-name="ion-ios-baseball" unicode="&#xf3de;" 
d="M208 374c-2 -1 -5 1 -5 3c-1 8 -2 15 -3 23h8c115 0 208 -93 208 -208v-8v0c-7 1 -15 2 -22 3c-2 0 -4 3 -3 5l3 9c2 5 -1 9 -6 11v0c-5 2 -9 0 -11 -5l-4 -11c-1 -2 -3 -4 -5 -3c-7 2 -15 5 -22 8c-4 2 -8 3 -12 5c-2 1 -3 4 -2 6l6 8c3 4 2 10 -2 13h-1
c-4 3 -9 1 -12 -3l-7 -10c-1 -2 -3 -2 -5 -1c-12 7 -23 16 -33 25c-2 2 -2 3 0 5l8 8c4 3 4 8 0 12l-1 1c-3 4 -8 4 -12 0l-8 -8c-2 -2 -4 -2 -6 0c-9 10 -16 21 -23 32c-1 2 -1 4 1 5l10 7c4 3 6 8 3 12v1c-3 4 -9 5 -13 2l-8 -6c-2 -1 -5 0 -6 2c-2 4 -4 9 -6 14
c-3 7 -5 13 -7 20c-1 2 0 4 2 5l12 4c5 2 7 6 5 11v0c-2 5 -6 8 -11 6zM210 1c1 -5 2 -12 2 -17v0h-4c-115 0 -208 93 -208 208v4v0c6 -1 12 -1 18 -2c2 0 4 -3 3 -5l-4 -13c-2 -5 1 -9 6 -11v0c5 -2 9 1 11 6l5 14c1 2 3 4 5 3c8 -2 15 -5 22 -8c4 -2 9 -4 13 -6
c2 -1 3 -4 2 -6l-8 -11c-3 -4 -1 -9 3 -12v-1c4 -3 9 -1 12 3l9 13c1 2 3 2 5 1c11 -7 22 -15 32 -24c2 -2 3 -3 1 -5l-10 -10c-4 -3 -4 -9 0 -13v0c3 -4 9 -4 13 0l9 10c2 2 4 1 6 -1c9 -10 18 -21 25 -33c1 -2 1 -4 -1 -5l-13 -9c-4 -3 -6 -8 -3 -12h1c3 -4 8 -6 12 -3
l11 8c2 1 5 0 6 -2c2 -4 3 -8 5 -12c3 -8 6 -15 8 -23c1 -2 -1 -4 -3 -5l-13 -4c-5 -2 -8 -7 -6 -12v0c2 -5 6 -8 11 -6l12 4c2 1 5 -1 5 -3zM383 167c1 2 3 3 5 3c9 -2 17 -3 26 -4c-12 -95 -88 -171 -184 -181v1c-1 7 -2 15 -3 22c0 2 1 3 3 4l16 5c5 2 7 6 5 11v1
c-2 5 -6 7 -11 5l-14 -4c-2 -1 -4 1 -5 3c-4 14 -9 27 -15 40c-1 2 -1 4 1 5l13 9c4 3 5 8 2 12v1c-3 4 -9 5 -13 2l-10 -7c-2 -1 -5 -1 -6 1c-8 12 -17 25 -27 36c-2 2 -2 3 0 5l10 11c4 3 4 8 0 12v0c-3 4 -9 4 -13 0l-10 -10c-2 -2 -3 -1 -5 0c-11 10 -23 18 -35 26
c-2 1 -2 4 -1 6l7 10c3 4 1 10 -3 13v0c-4 3 -9 1 -12 -3l-8 -12c-1 -2 -4 -2 -6 -1c-13 7 -26 12 -40 16c-2 1 -4 3 -3 5l4 13c2 5 0 9 -5 11h-1c-5 2 -9 -1 -11 -6l-5 -14c-1 -2 -2 -3 -4 -3c-7 1 -15 2 -23 3h-1c10 96 86 172 181 184c1 -9 2 -19 4 -28c0 -2 -1 -3 -3 -4
l-17 -6c-5 -2 -8 -6 -6 -11v0c2 -5 6 -8 11 -6l16 5c2 1 4 -1 5 -3c4 -14 10 -26 16 -39c1 -2 1 -5 -1 -6l-15 -10c-4 -3 -6 -8 -3 -12h1c3 -4 8 -6 12 -3l13 9c2 1 5 1 6 -1c8 -12 16 -23 26 -34c2 -2 2 -3 0 -5l-13 -13c-4 -3 -4 -9 0 -13v0c3 -4 9 -4 13 0l13 13
c2 2 3 1 5 0c11 -10 23 -19 35 -27c2 -1 2 -3 1 -5l-9 -14c-3 -4 -1 -9 3 -12v-1c4 -3 9 -1 12 3l11 15c1 2 3 3 5 2c13 -6 25 -12 39 -16c2 -1 4 -3 3 -5l-5 -17c-2 -5 1 -9 6 -11v0c5 -2 9 1 11 6z" />
    <glyph glyph-name="ion-ios-basket" unicode="&#xf11f;" horiz-adv-x="448" 
d="M356 74v76h67l-18 -76h-49zM356 0v55h45l-6 -25c-5 -17 -20 -30 -39 -30v0zM233 0v56h104v-56h-104zM43 74l-17 76h66v-76h-49zM111 168v88h104v-88h-104zM233 168v88h104v-88h-104zM54 30l-7 26h45v-56v0c-19 0 -33 13 -38 30zM111 0v56h104v-56h-104zM233 74v76h104
v-76h-104zM111 74v76h104v-76h-104zM432 256c10 0 18 -10 16 -20l-20 -68h-72v174c0 8 -6 14 -14 14h-236c-8 0 -14 -6 -14 -14v-174h-72l-20 68c-2 10 6 20 16 20h48v96c0 18 14 32 32 32h256c18 0 32 -14 32 -32v-96h48z" />
    <glyph glyph-name="ion-ios-basketball" unicode="&#xf3e0;" 
d="M171 142c-22 23 -48 42 -77 56s-60 22 -92 24c5 33 18 64 36 90c64 -28 122 -68 172 -118c3 -3 5 -6 8 -9l-6 -6c-13 -13 -27 -25 -41 -37zM278 262c-21 21 -37 46 -49 73c-9 21 -15 43 -17 65c45 -1 87 -16 121 -42c-15 -34 -32 -67 -53 -97c-1 0 -2 1 -2 1zM351 213
c-18 8 -36 19 -52 31c21 30 40 62 55 96c37 -37 61 -88 62 -144c-22 2 -44 8 -65 17zM146 130c1 -1 2 -3 4 -4c-33 -24 -68 -46 -105 -63c-28 35 -45 80 -45 129v4c25 -2 50 -7 73 -17c27 -12 52 -28 73 -49zM236 204c-26 27 -56 52 -86 74c-30 21 -62 40 -95 55
c33 36 79 61 131 66c6 -61 35 -117 79 -159c-9 -12 -19 -25 -29 -36zM253 185c11 12 21 24 31 37c38 -29 83 -47 131 -52c-5 -52 -30 -97 -66 -131c-24 53 -57 102 -96 146zM187 122c17 14 34 28 49 44c38 -43 69 -91 92 -144c-26 -18 -57 -31 -90 -36c-4 49 -21 96 -51 136
zM167 106c11 -15 21 -31 28 -49c10 -23 15 -48 17 -73h-4c-56 0 -107 23 -145 59c37 17 72 39 104 63z" />
    <glyph glyph-name="ion-ios-battery-charging" unicode="&#xf120;" horiz-adv-x="480" 
d="M380 304c26 0 48 -22 48 -48v-128c0 -26 -22 -48 -48 -48h-332c-26 0 -48 22 -48 48v128c0 26 22 48 48 48h332zM400 128v128c0 11 -9 20 -20 20h-332c-11 0 -20 -9 -20 -20v-128c0 -11 9 -20 20 -20h332c11 0 20 9 20 20zM448 243c16 0 32 -27 32 -51s-16 -51 -32 -51
v102zM368 256c7 0 12 -5 12 -12v-104c0 -7 -5 -12 -12 -12h-308c-7 0 -12 5 -12 12v104c0 7 5 12 12 12h308zM203 140l45 61h-27l8 43l-45 -61h27z" />
    <glyph glyph-name="ion-ios-battery-dead" unicode="&#xf121;" horiz-adv-x="480" 
d="M380 304c26 0 48 -22 48 -48v-128c0 -26 -22 -48 -48 -48h-332c-26 0 -48 22 -48 48v128c0 26 22 48 48 48h332zM400 128v128c0 11 -9 20 -20 20h-332c-11 0 -20 -9 -20 -20v-128c0 -11 9 -20 20 -20h332c11 0 20 9 20 20zM448 243c16 0 32 -27 32 -51s-16 -51 -32 -51
v102z" />
    <glyph glyph-name="ion-ios-battery-full" unicode="&#xf122;" horiz-adv-x="480" 
d="M380 304c26 0 48 -22 48 -48v-128c0 -26 -22 -48 -48 -48h-332c-26 0 -48 22 -48 48v128c0 26 22 48 48 48h332zM400 128v128c0 11 -9 20 -20 20h-332c-11 0 -20 -9 -20 -20v-128c0 -11 9 -20 20 -20h332c11 0 20 9 20 20zM448 243c16 0 32 -27 32 -51s-16 -51 -32 -51
v102zM368 256c7 0 12 -5 12 -12v-104c0 -7 -5 -12 -12 -12h-308c-7 0 -12 5 -12 12v104c0 7 5 12 12 12h308z" />
    <glyph glyph-name="ion-ios-beaker" unicode="&#xf124;" horiz-adv-x="384" 
d="M381 400c2 0 3 -1 3 -2s-2 -4 -3 -6s-12 -15 -14 -33v-310c0 -35 -28 -65 -63 -65h-208c-35 0 -64 29 -64 64v276c0 32 -2 32 -32 36c0 12 10 40 64 40h270h47zM48 371c12 -13 12 -29 12 -47v-36h279v0v71v3c0 3 1 6 2 10h-7h-270c-4 0 -10 0 -16 -1v0z" />
    <glyph glyph-name="ion-ios-bed" unicode="&#xf139;" horiz-adv-x="448" 
d="M426 240c12 0 22 -10 22 -22v-180c0 -12 -10 -22 -22 -22v0c-12 0 -22 10 -22 22v6c0 2 -2 4 -4 4h-352c-2 0 -4 -2 -4 -4v-6c0 -12 -10 -22 -22 -22v0c-12 0 -22 10 -22 22v180c0 12 10 22 22 22v0c12 0 22 -10 22 -22c0 -1 1 -2 2 -2h356c1 0 2 1 2 2c0 12 10 22 22 22
v0zM52 234c-4 0 -8 4 -8 8v94c0 18 14 32 32 32h296c18 0 32 -14 32 -32v-94c0 -4 -4 -8 -8 -8h-22c-2 0 -4 2 -4 4v13c0 9 -7 16 -16 16h-98c-9 0 -16 -7 -16 -16v-13c0 -2 -2 -4 -4 -4h-24c-2 0 -4 2 -4 4v13c0 9 -7 16 -16 16h-98c-9 0 -16 -7 -16 -16v-13
c0 -2 -2 -4 -4 -4h-22z" />
    <glyph glyph-name="ion-ios-beer" unicode="&#xf126;" horiz-adv-x="384" 
d="M48 286v-96h-26c-9 0 -17 8 -17 17c0 16 11 22 11 35v51c0 19 -16 12 -16 41v4c0 26 25 43 50 43c10 0 18 -1 23 -2c6 -1 12 1 16 6c9 10 22 17 36 17c9 0 19 -2 26 -7c6 -4 13 -2 17 3c10 11 23 18 44 18c24 0 47 -16 56 -39c2 -5 7 -9 13 -9h1c21 0 38 -17 38 -38v-22
c0 -2 -3 -4 -5 -2v0c-4 3 -8 4 -13 4h-230c-13 0 -24 -11 -24 -24zM322 -4c8 0 14 -6 14 -14s-6 -14 -14 -14h-276c-8 0 -14 6 -14 14s6 14 14 14h276zM336 254c26 0 48 -22 48 -48v-96c0 -26 -22 -48 -48 -48h-32c0 -12 2 -18 5 -30c1 -6 0 -12 -5 -16c-3 -3 -7 -4 -11 -4
h-214c-6 0 -12 3 -15 8c-3 4 -4 9 -3 14v0c2 12 3 18 3 30v214c0 9 7 16 16 16h208c9 0 16 -7 16 -16v-24h32zM356 110v96c0 11 -9 20 -20 20h-32v-136h32c11 0 20 9 20 20z" />
    <glyph glyph-name="ion-ios-bicycle" unicode="&#xf127;" horiz-adv-x="448" 
d="M93 159c-17 0 -34 -8 -46 -20s-19 -29 -19 -46s7 -34 19 -46s29 -19 46 -19s34 7 46 19s20 29 20 46s-8 35 -20 47s-29 19 -46 19zM93 187v0c51 0 94 -43 94 -94s-43 -93 -94 -93s-93 42 -93 93s42 94 93 94zM288 320c-18 0 -32 14 -32 32s14 32 32 32s32 -14 32 -32
s-14 -32 -32 -32zM355 159c-17 0 -34 -8 -46 -20s-20 -29 -20 -46s8 -34 20 -46s29 -19 46 -19s34 7 46 </font>
</defs>
</svg>
